<svg xmlns="http://www.w3.org/2000/svg" viewBox="0 0 215.79 31.32"><defs><style>.cls-1{fill:#335d90;}</style></defs><title>workdmakr_bl</title><g id="Layer_2" data-name="Layer 2"><g id="Layer_1-2" data-name="Layer 1"><path class="cls-1" d="M15.77,9V30.65h-7V9H0V3.13H24.53V9Z"/><path class="cls-1" d="M31.31,10.17V22.29c0,2.47,1.06,3.3,2.82,3.3a5.21,5.21,0,0,0,3.48-1.36V10.17h6.78V30.35l-6.78.84v-3A9.31,9.31,0,0,1,31,31.32c-4,0-6.43-2.69-6.43-7V10.17Z"/><path class="cls-1" d="M75,30.65V18.59c0-2.47-1.06-3.3-2.77-3.3a5,5,0,0,0-3.3,1.32V30.65H62.14V18.59c0-2.47-1.1-3.3-2.82-3.3A5,5,0,0,0,56,16.52V30.65H49.24V10.53L56,9.69v2.86a8.8,8.8,0,0,1,6.52-3,6,6,0,0,1,5.77,3.66A9.42,9.42,0,0,1,75.4,9.51c4,0,6.39,2.69,6.39,7.09V30.65Z"/><path class="cls-1" d="M89.93,7.27c-2.47,0-4-1.28-4-3.61S87.46,0,89.93,0s4,1.28,4,3.66S92.44,7.27,89.93,7.27ZM86.54,30.65V10.53l6.78-.84v21Z"/><path class="cls-1" d="M106.44,30.65H99.66V20.92l-3,.84V16.38l3-.84v-14L106.44.7v13l3.08-.84v5.37l-3.08.84Z"/><path class="cls-1" d="M123.75,28.19c-1.45,1.72-3.08,3.13-5.9,3.13-3.52,0-6.25-2.51-6.25-5.68,0-3.88,2.91-7,12.11-7.27V18c0-2.16-1.1-3.13-3.61-3.13a16.65,16.65,0,0,0-7,2.07l-1.41-5a20.61,20.61,0,0,1,9.43-2.42c7.09,0,9.43,3.22,9.34,8.94l0,6.08c0,1.41.26,1.54,1.67,1.67l-.66,4.84c-4.45.57-6.65-.62-7.58-2.86Zm0-6.65c-4.18.48-5.73,1.28-5.73,3.08a2.28,2.28,0,0,0,2.55,2.2,4.19,4.19,0,0,0,3.17-1.37Z"/><path class="cls-1" d="M148.63,1.54,155.42.7v30h-6.78V28.54a8,8,0,0,1-5.73,2.73c-5.06,0-8.76-4.14-8.76-10.61,0-6.78,4.76-11.1,10.26-11.1a13.09,13.09,0,0,1,4.23.7Zm-3.13,13c-2.86,0-4.58,2.33-4.58,5.73s1.76,5.55,4.27,5.55a4.57,4.57,0,0,0,3.44-1.41v-9A5.49,5.49,0,0,0,145.51,14.58Z"/><path class="cls-1" d="M173.69,30.65V18.54c0-2.47-1.1-3.26-2.91-3.26a5.7,5.7,0,0,0-3.7,1.54V30.65H160.3V10.53l6.78-.84V13A9.35,9.35,0,0,1,174,9.51c4.1,0,6.52,2.69,6.52,7V30.65Z"/><path class="cls-1" d="M188.58,7.27c-2.47,0-4-1.28-4-3.61s1.54-3.66,4-3.66,4,1.28,4,3.66S191.09,7.27,188.58,7.27Zm-3.39,23.39V10.53L192,9.69v21Z"/><path class="cls-1" d="M202.36,22c.22,2.73,2.11,4.32,5.42,4.32a13.87,13.87,0,0,0,6.69-2l.66,5.24a18.36,18.36,0,0,1-8,1.67c-7,0-11.45-3.88-11.45-10.7s4.58-11.06,11.1-11.06c5.81,0,9,3.48,9,8.59a15.28,15.28,0,0,1-.44,3.61l-13,.22Zm7.14-3.52v-.4c0-2.42-1-3.92-3.13-3.92-2.33,0-3.74,2-4,4.36Z"/></g></g></svg>