<svg xmlns="http://www.w3.org/2000/svg" xmlns:xlink="http://www.w3.org/1999/xlink" viewBox="0 0 79.9 11.59"><defs><style>.cls-1{fill:url(#linear-gradient);}.cls-2{fill:url(#linear-gradient-2);}.cls-3{fill:url(#linear-gradient-3);}.cls-4{fill:url(#linear-gradient-4);}.cls-5{fill:url(#linear-gradient-5);}.cls-6{fill:url(#linear-gradient-6);}.cls-7{fill:url(#linear-gradient-7);}.cls-8{fill:url(#linear-gradient-8);}.cls-9{fill:url(#linear-gradient-9);}.cls-10{fill:url(#linear-gradient-10);}</style><linearGradient id="linear-gradient" x1="2.42" y1="-0.24" x2="8.29" y2="9.93" gradientUnits="userSpaceOnUse"><stop offset="0" stop-color="#02ccba"/><stop offset="1" stop-color="#aa7ecd"/></linearGradient><linearGradient id="linear-gradient-2" x1="10.51" y1="2.94" x2="15.59" y2="11.73" xlink:href="#linear-gradient"/><linearGradient id="linear-gradient-3" x1="20.85" y1="2.39" x2="27.09" y2="13.19" xlink:href="#linear-gradient"/><linearGradient id="linear-gradient-4" x1="30.59" y1="1.25" x2="35.95" y2="10.54" xlink:href="#linear-gradient"/><linearGradient id="linear-gradient-5" x1="35.57" y1="1.34" x2="40.87" y2="10.51" xlink:href="#linear-gradient"/><linearGradient id="linear-gradient-6" x1="42.5" y1="3.76" x2="47.39" y2="12.24" xlink:href="#linear-gradient"/><linearGradient id="linear-gradient-7" x1="52.2" y1="2.21" x2="57.49" y2="11.38" xlink:href="#linear-gradient"/><linearGradient id="linear-gradient-8" x1="60.25" y1="3.38" x2="65.34" y2="12.2" xlink:href="#linear-gradient"/><linearGradient id="linear-gradient-9" x1="67.12" y1="1.25" x2="72.48" y2="10.54" xlink:href="#linear-gradient"/><linearGradient id="linear-gradient-10" x1="74.34" y1="4.09" x2="78.64" y2="11.54" xlink:href="#linear-gradient"/></defs><title>wordmark_1</title><g id="Layer_2" data-name="Layer 2"><g id="Layer_1-2" data-name="Layer 1"><path class="cls-1" d="M5.84,3.33v8H3.25v-8H0V1.16H9.08V3.33Z"/><path class="cls-2" d="M11.59,3.77V8.25c0,.91.39,1.22,1,1.22A1.93,1.93,0,0,0,13.93,9V3.77h2.51v7.47l-2.51.31V10.42a3.45,3.45,0,0,1-2.46,1.17A2.31,2.31,0,0,1,9.08,9V3.77Z"/><path class="cls-3" d="M27.77,11.35V6.88c0-.91-.39-1.22-1-1.22a1.86,1.86,0,0,0-1.22.49v5.2H23V6.88c0-.91-.41-1.22-1-1.22a1.87,1.87,0,0,0-1.22.46v5.23H18.23V3.9l2.51-.31V4.65a3.26,3.26,0,0,1,2.41-1.13,2.21,2.21,0,0,1,2.14,1.35,3.49,3.49,0,0,1,2.63-1.35,2.31,2.31,0,0,1,2.36,2.63v5.2Z"/><path class="cls-4" d="M33.3,2.69c-.91,0-1.48-.47-1.48-1.34A1.3,1.3,0,0,1,33.3,0c.93,0,1.48.47,1.48,1.35S34.23,2.69,33.3,2.69ZM32,11.35V3.9l2.51-.31v7.76Z"/><path class="cls-5" d="M39.41,11.35H36.9V7.75l-1.13.31v-2l1.13-.31V.57L39.41.26V5.09l1.14-.31v2l-1.14.31Z"/><path class="cls-6" d="M45.82,10.44a2.7,2.7,0,0,1-2.19,1.16,2.19,2.19,0,0,1-2.32-2.1c0-1.44,1.08-2.59,4.48-2.69V6.65c0-.8-.41-1.16-1.34-1.16a6.16,6.16,0,0,0-2.58.77l-.52-1.84a7.63,7.63,0,0,1,3.49-.9c2.63,0,3.49,1.19,3.46,3.31l0,2.25c0,.52.1.57.62.62l-.24,1.79c-1.65.21-2.46-.23-2.8-1.06ZM45.8,8c-1.55.18-2.12.47-2.12,1.14a.85.85,0,0,0,.95.82,1.55,1.55,0,0,0,1.17-.51Z"/><path class="cls-7" d="M55,.57,57.54.26V11.35H55v-.78a3,3,0,0,1-2.12,1c-1.88,0-3.25-1.53-3.25-3.93a3.85,3.85,0,0,1,3.8-4.11A4.85,4.85,0,0,1,55,3.8ZM53.87,5.4c-1.06,0-1.7.86-1.7,2.12s.65,2.05,1.58,2.05A1.69,1.69,0,0,0,55,9.05V5.72A2,2,0,0,0,53.87,5.4Z"/><path class="cls-8" d="M64.31,11.35V6.87c0-.91-.41-1.21-1.08-1.21a2.11,2.11,0,0,0-1.37.57v5.12H59.35V3.9l2.51-.31V4.83a3.46,3.46,0,0,1,2.54-1.3,2.32,2.32,0,0,1,2.41,2.61v5.22Z"/><path class="cls-9" d="M69.82,2.69c-.91,0-1.48-.47-1.48-1.34A1.3,1.3,0,0,1,69.82,0c.93,0,1.48.47,1.48,1.35S70.75,2.69,69.82,2.69Zm-1.26,8.66V3.9l2.51-.31v7.76Z"/><path class="cls-10" d="M74.92,8.15c.08,1,.78,1.6,2,1.6A5.14,5.14,0,0,0,79.41,9L79.65,11a6.8,6.8,0,0,1-3,.62c-2.58,0-4.24-1.44-4.24-4a3.89,3.89,0,0,1,4.11-4.09A3,3,0,0,1,79.9,6.7,5.66,5.66,0,0,1,79.73,8l-4.81.08Zm2.64-1.3V6.7c0-.9-.38-1.45-1.16-1.45a1.58,1.58,0,0,0-1.47,1.61Z"/></g></g></svg>